<?xml version="1.0" standalone="no"?>
<!DOCTYPE svg PUBLIC "-//W3C//DTD SVG 20010904//EN"
 "http://www.w3.org/TR/2001/REC-SVG-20010904/DTD/svg10.dtd">
<svg version="1.0" xmlns="http://www.w3.org/2000/svg"
 width="977.000000pt" height="659.000000pt" viewBox="0 0 977.000000 659.000000"
 preserveAspectRatio="xMidYMid meet">

<g transform="translate(0.000000,659.000000) scale(0.100000,-0.100000)"
fill="#fff" stroke="none">
<path d="M130 2135 l0 -625 620 0 620 0 0 95 0 95 -500 0 -500 0 -2 528 -3
527 -117 3 -118 3 0 -626z"/>
<path d="M1530 2135 l0 -625 635 0 635 0 0 95 0 95 -515 0 -515 0 0 190 0 190
490 0 490 0 0 90 0 90 -490 0 -490 0 0 155 0 155 515 0 515 0 0 95 0 95 -635
0 -635 0 0 -625z"/>
<path d="M3335 2749 c-172 -14 -284 -71 -326 -163 -17 -38 -19 -74 -19 -451 0
-465 0 -459 80 -528 90 -77 218 -97 630 -96 425 0 552 19 643 99 70 62 77 92
77 357 l0 223 -120 0 -120 0 -2 -222 -3 -223 -40 -20 c-38 -19 -60 -20 -430
-20 -370 0 -392 1 -430 20 l-40 20 0 390 0 390 40 20 c38 19 63 20 583 23
l542 3 0 94 0 95 -487 -1 c-269 -1 -528 -5 -578 -10z"/>
<path d="M4874 2148 c-223 -337 -409 -619 -411 -625 -4 -10 24 -13 121 -13
l126 0 31 43 c17 24 162 246 323 493 160 247 296 449 301 448 5 -1 151 -222
324 -493 l314 -491 129 0 c102 0 129 3 126 13 -2 7 -185 289 -407 625 l-404
612 -83 0 -83 0 -407 -612z"/>
<path d="M6600 2749 c-146 -15 -238 -70 -284 -168 -20 -44 -21 -60 -21 -446
l0 -400 28 -57 c48 -97 129 -141 295 -158 57 -6 295 -10 577 -8 l480 3 3 93 3
92 -513 0 c-318 0 -527 4 -550 10 -20 6 -47 19 -60 29 l-23 19 0 377 0 377 23
19 c13 10 40 23 60 29 23 6 232 10 550 10 l513 0 -3 93 -3 92 -500 1 c-275 1
-534 -2 -575 -7z"/>
<path d="M7761 2753 c0 -5 178 -171 395 -371 l394 -363 2 -252 3 -252 115 0
115 0 3 255 4 255 389 360 c214 198 389 363 389 368 0 4 -64 7 -143 7 l-143 0
-308 -285 -308 -285 -106 99 c-59 54 -197 182 -307 284 l-200 186 -147 1 c-82
0 -148 -3 -147 -7z"/>
<path d="M5747 1054 c-4 -4 -7 -155 -7 -336 l0 -328 40 0 40 0 -2 333 -3 332
-30 3 c-17 2 -34 0 -38 -4z"/>
<path d="M1582 1034 c-24 -17 -29 -53 -10 -72 7 -7 25 -12 40 -12 45 0 58 57
20 88 -20 15 -23 15 -50 -4z"/>
<path d="M6528 1038 c-38 -31 -25 -88 20 -88 51 0 71 50 34 83 -22 20 -33 21
-54 5z"/>
<path d="M1920 910 l0 -60 -35 0 c-32 0 -35 -2 -35 -30 0 -28 3 -30 35 -30
l35 0 0 -157 c0 -186 10 -218 74 -242 32 -12 46 -12 84 -2 64 17 73 26 61 60
-10 27 -11 28 -45 16 -48 -16 -83 -8 -95 22 -5 13 -9 87 -9 164 l0 139 75 0
75 0 0 30 0 30 -75 0 -75 0 0 60 0 60 -35 0 -35 0 0 -60z"/>
<path d="M6090 910 l0 -60 -30 0 c-27 0 -30 -3 -30 -30 0 -26 3 -30 29 -30
l29 0 4 -164 c3 -148 5 -167 24 -193 30 -40 88 -59 139 -44 59 16 69 25 61 55
-6 25 -9 26 -44 20 -98 -19 -102 -13 -102 172 l0 154 75 0 75 0 0 30 0 30 -75
0 -75 0 0 60 0 60 -40 0 -40 0 0 -60z"/>
<path d="M2835 863 c-75 -9 -136 -49 -173 -113 -23 -39 -27 -56 -27 -125 0
-64 5 -89 23 -123 62 -118 235 -155 355 -76 41 27 45 39 21 65 -15 17 -18 17
-53 -7 -113 -75 -256 -17 -277 112 -24 152 143 256 271 168 l34 -23 21 27 22
27 -28 21 c-38 31 -131 54 -189 47z"/>
<path d="M3393 859 c-55 -10 -80 -24 -125 -67 -72 -68 -87 -190 -37 -287 70
-137 271 -164 382 -52 91 90 91 253 2 343 -53 53 -143 78 -222 63z m143 -90
c18 -11 42 -39 53 -63 76 -156 -78 -313 -229 -233 -97 51 -114 206 -32 280 54
49 145 56 208 16z"/>
<path d="M4100 861 c-48 -10 -96 -36 -114 -63 -16 -22 -16 -21 -16 20 l0 42
-40 0 -40 0 0 -235 0 -235 40 0 40 0 0 148 c0 129 2 151 20 180 33 53 75 74
144 69 51 -3 63 -8 87 -35 l29 -32 0 -165 0 -165 40 0 40 0 0 163 c-1 168 -10
218 -47 259 -38 42 -115 63 -183 49z"/>
<path d="M4637 856 c-58 -16 -84 -38 -98 -86 -15 -48 2 -102 39 -129 15 -10
55 -28 89 -39 106 -35 123 -48 123 -94 0 -62 -115 -80 -206 -32 -45 24 -49 25
-61 8 -7 -10 -13 -23 -13 -30 0 -18 96 -62 151 -69 130 -19 237 78 196 178
-20 47 -58 73 -138 97 -86 26 -125 56 -116 92 12 46 101 63 174 33 46 -20 48
-19 61 10 16 34 17 31 -25 48 -58 22 -123 27 -176 13z"/>
<path d="M7035 855 c-33 -9 -60 -24 -82 -49 l-33 -36 0 45 c0 45 0 45 -35 45
l-35 0 0 -235 0 -235 35 0 35 0 0 138 c0 123 2 142 23 182 51 101 206 110 252
14 11 -24 15 -69 15 -183 l0 -151 35 0 35 0 0 170 c0 186 -7 218 -56 263 -15
15 -49 31 -76 37 -58 12 -50 12 -113 -5z"/>
<path d="M7620 850 c-93 -32 -140 -106 -140 -222 0 -117 77 -207 185 -216 79
-6 117 4 165 45 l43 37 -6 -57 c-11 -108 -64 -157 -170 -157 -42 0 -71 7 -108
26 -49 24 -51 24 -65 7 -23 -31 -16 -43 44 -71 47 -22 71 -27 137 -27 93 0
148 23 188 77 43 58 47 88 47 334 l0 234 -35 0 c-34 0 -35 -1 -35 -41 l0 -41
-39 35 c-26 23 -56 38 -90 46 -64 14 -55 14 -121 -9z m178 -77 c89 -66 89
-210 0 -276 -40 -30 -115 -34 -166 -8 -107 55 -110 234 -4 291 47 26 130 23
170 -7z"/>
<path d="M1570 625 l0 -235 40 0 40 0 0 235 0 235 -40 0 -40 0 0 -235z"/>
<path d="M5050 696 c0 -179 7 -214 53 -263 66 -70 209 -64 276 12 l31 36 0
-46 c0 -45 0 -45 35 -45 l35 0 0 235 0 235 -34 0 -34 0 -3 -147 c-4 -131 -7
-152 -26 -183 -30 -49 -71 -70 -133 -70 -46 0 -56 4 -86 34 l-34 34 0 166 0
166 -40 0 -40 0 0 -164z"/>
<path d="M6520 625 l0 -235 35 0 35 0 0 235 0 235 -35 0 -35 0 0 -235z"/>
</g>
</svg>
